<?xml version="1.0" encoding="utf-8"?>
<!-- Generator: Adobe Illustrator 18.0.0, SVG Export Plug-In . SVG Version: 6.00 Build 0)  -->
<!DOCTYPE svg PUBLIC "-//W3C//DTD SVG 1.1//EN" "http://www.w3.org/Graphics/SVG/1.1/DTD/svg11.dtd">
<svg version="1.1" id="Layer_2" xmlns="http://www.w3.org/2000/svg" xmlns:xlink="http://www.w3.org/1999/xlink" x="0px" y="0px"
	 viewBox="-277 0 889 792" enable-background="new -277 0 889 792" xml:space="preserve">
<path fill="none" stroke="#000000" stroke-width="3" stroke-miterlimit="10" d="M92.2,308.1c0,0-33.8,42.9-28.1,53.3
	c0,0,2.4-1.8,6.4-4.1c12-7,38.3-19.8,55.8-7.7c0,0,41.6,8.1-33.5,154.3c0,0-28.2,102.8,55.2,103.8c0,0,47.8,218.9,262.3,106.2
	c0,0,85.3-30.8,116.9-8c0,0-1.6-398.2-276.3-449.2c0,0,249.7,18.3,266.6-79.1c0,0,6.2-17.7-6.7-31.1l8-11.2
	c0,0-127.7,4.3-114.3-35.7l27.3-68.9c0,0-15.1-12.3-103.5,88.2c0,0-91.5,20.7-41.6-96.8c0,0-32.5-2.6-64.6,105.9
	c0,0-39.9,80.2-35.4-3.5c0,0,8.6-61.9-21-21.2c0,0-17.1,102.2-24.9,98.2c0,0-11.8-5.3-25.8-29.3c0,0-5.3,10.7-4.5,36.2
	c0,0,21,9.6-7.5,14c0,0-12.8-3.8-7.7,10.8c0,0,9.6-0.3-14.2,21.5C80.7,255.1,74.3,273.6,92.2,308.1z"/>
<circle fill="#FFFFFF" stroke="#000000" stroke-width="3" stroke-miterlimit="10" cx="194.5" cy="314.5" r="33.5"/>
<path fill="none" stroke="#000000" stroke-width="3" stroke-miterlimit="10" d="M65.4,356.6c8.7-18.2,25-32.5,44.2-38.7
	c7-2.3,14.8-3.4,21.6-0.6c6.8,2.8,11.9,10.7,9.4,17.7"/>
<path fill="none" stroke="#000000" stroke-width="5" stroke-miterlimit="10" d="M137,297c5.3,0.2,8.6,6.5,13.8,7.5
	c4.2,0.8,8.2-2,11.5-4.8c7.4-6.4,13.9-13.7,19.5-21.7c3.6-5.1,6.8-10.6,11.6-14.6c4.6-3.9,10.3-6.1,15.9-8.3
	c1.7-0.7,3.4-1.3,5.2-1.2c2,0.1,3.8,1.2,5.3,2.4c6.4,4.8,11.7,13.1,8.8,20.5"/>
<path fill="none" stroke="#000000" stroke-width="5" stroke-miterlimit="10" d="M-39.5,161c-24.7-1.4-49.7-1.3-73.7,4.6
	s-47.1,18.2-62.2,37.7c-14.2,18.3-20.5,41.7-21.7,64.9c-1.2,23.1,2.3,46.2,6,69.1c1.5,9.5,3.2,19.1,7.5,27.6
	c11.9,23.3,40.4,32.1,66.2,36.6c20.2,3.5,41.1,5.8,61,0.8c19.9-5,38.6-18.6,44.8-38.2c10.5,0.1,21.1,0.3,31.6,0.4
	c4.8,0.1,10.8-0.6,12.5-5.2c-11-5-21.9-10-32.9-15c-2.1-0.9-5.5-1.1-5.6,1.2c30.5-51.7,27.7-121.2-7-170.1c-3.2-4.6-6.9-9.1-12-11.6
	C-29.5,161.7-34.6,161.3-39.5,161z"/>
<path fill="none" stroke="#000000" stroke-width="5" stroke-miterlimit="10" d="M-156.6,328c-2.3-23.6-3.1-47.3-2.3-71
	c1.2-0.2,2.2,0.9,2.8,1.9c4.9,7.4,8.4,15.8,10.1,24.5c1.8-12.5,5.3-24.8,10.2-36.5c7.1,17.3,8,36.4,8.8,55
	c0.4,10.1,0.8,20.1,1.3,30.2"/>
<path fill="none" stroke="#000000" stroke-width="5" stroke-miterlimit="10" d="M-79,323.7c-9.3,0.4-18.7,0.9-28,1.3
	c-1,0-2.1,0-2.8-0.6c-0.7-0.6-0.8-1.7-0.8-2.6c-0.4-7.2-5.2-31.1,0.2-35.4c6.6-5.4,19.4,3.2,27-4c0.4-0.4,0.8-0.9,0.5-1.4
	c-10.2,0-25.6,3.5-30-4.8c-3.8-7.2-1-24.9-1.4-33.2c7.3,0.5,18.1-0.9,25.3-2.1"/>
<path fill="none" stroke="#000000" stroke-width="5" stroke-miterlimit="10" d="M-68.7,247c-0.7,11.2-1.4,22.6,0.7,33.7
	c2.3,12.5,8,24.8,5.9,37.3c2.4-11.2-6.6-23.2-5.8-34.7c0.1-1.2,0.3-2.5,1.2-3.3c0.7-0.7,1.8-0.9,2.7-1.1c5.3-1,10.7-1.3,16-0.8
	c3.1-12.1,2.4-25.1-1.8-36.8c1.3-0.1,2.7-0.2,4-0.3c-0.8,20.6-1.5,41.5,2.8,61.8c2.1,9.7,5.3,19.4,3.7,29.2"/>
</svg>
