<?xml version="1.0"?>
<svg width="640" height="480" xmlns="http://www.w3.org/2000/svg" xmlns:svg="http://www.w3.org/2000/svg">
 <!-- Created with SVG-edit - http://svg-edit.googlecode.com/ -->
  <path d="m183,184c-1.699997,0 -2.636002,0 -3.485336,0c-0.919159,0 -1.916,0 -2.750656,0c-0.930679,0 -1.722137,0.015305 -2.574677,-0.035995c-0.59166,-0.035599 -1.794373,-0.230881 -2.689331,-0.484833c-0.603653,-0.171295 -1.800003,-0.579178 -2.399994,-0.779175c-0.900009,-0.300003 -1.501709,-0.494904 -2.70134,-0.901337c-0.610214,-0.206741 -1.562515,-0.539734 -2.565338,-0.965332c-0.723663,-0.307129 -1.470627,-0.666672 -2.243988,-1.043991c-0.394501,-0.192474 -1.590988,-0.786072 -2.386673,-1.189331c-0.782959,-0.396805 -1.542053,-0.780685 -2.231995,-1.200012c-0.944138,-0.573822 -1.446167,-1.014725 -2.185333,-1.563995c-0.934097,-0.694107 -1.746033,-1.080566 -2.306168,-1.356827c-0.88623,-0.437088 -1.786789,-1.012131 -2.379166,-1.484512c-0.607986,-0.484833 -1.168274,-1.034073 -2.100006,-1.661331c-0.581573,-0.391525 -1.495331,-0.804077 -2.100006,-1.024323c-1.191132,-0.433838 -1.812393,-0.572205 -2.664001,-0.945007c-1.093567,-0.478729 -1.7827,-1.011841 -2.215164,-1.363998c-0.625183,-0.509094 -1.612076,-1.258453 -2.220825,-1.58934c-0.986465,-0.536179 -1.577438,-0.862228 -2.400009,-1.12532c-0.978897,-0.31308 -1.865036,-0.274582 -2.79866,-0.856003c-0.634567,-0.395172 -1.140045,-1.014389 -1.717331,-1.828003c-0.531982,-0.749771 -1.026169,-1.466461 -1.720001,-1.975998c-0.550262,-0.404099 -1.584717,-1.087708 -2.143173,-1.646164c-0.558449,-0.558456 -1.123329,-1.389404 -1.541664,-1.979172c-0.433395,-0.610992 -1.245171,-1.402435 -1.979164,-2c-0.493332,-0.401642 -1.402626,-1.167542 -1.828003,-1.810669c-0.409027,-0.618408 -0.765907,-1.613235 -1.082664,-2.425323c-0.339806,-0.871155 -0.748268,-1.768158 -1.073334,-2.365341c-0.504089,-0.926071 -0.901154,-1.538483 -1.349335,-2.565338c-0.307724,-0.705048 -0.533554,-1.447098 -0.755997,-2.171997c-0.212097,-0.691162 -0.610664,-1.893326 -0.910667,-2.661331c-0.300003,-0.768005 -0.620369,-1.637222 -0.889336,-2.661331c-0.189186,-0.720337 -0.355225,-1.451813 -0.489334,-2.517166c-0.123665,-0.982422 -0.093796,-1.618195 -0.287994,-2.821503c-0.146423,-0.907272 -0.359032,-1.494217 -0.549339,-2.399994c-0.188042,-0.89502 -0.26149,-1.799637 -0.279495,-2.700005c-0.017998,-0.899834 -0.004501,-1.800003 -0.004501,-2.700005c0,-0.599998 0,-1.79866 0,-2.679161c0,-0.835503 0,-1.835503 0,-2.710167c0,-1.010666 0,-1.810669 0,-2.810669c0,-0.6045 0,-1.457169 0,-2.421501c0,-0.814499 -0.004265,-1.683006 0.000168,-2.878334c0.002205,-0.59568 -0.038193,-1.475838 0.166496,-2.533501c0.140404,-0.725517 0.55265,-1.613411 0.933334,-2.587997c0.312225,-0.799332 0.47673,-1.362419 0.900002,-2.412003c0.288765,-0.716042 0.722687,-1.587479 1.321335,-2.366661c0.477409,-0.621376 1.078217,-1.161453 1.656998,-2c0.529961,-0.767822 0.784744,-1.389656 0.969002,-2.400002c0.144768,-0.793816 0.297119,-1.820839 0.699333,-2.636002c0.471725,-0.956039 0.828552,-1.452423 1.353333,-2.243164c0.34166,-0.514816 1.121696,-1.548187 1.625336,-2.171501c0.547569,-0.677673 1.016762,-1.366119 1.585335,-2.098671c0.38073,-0.49054 1.19249,-1.275581 1.768494,-1.729828c0.86097,-0.67897 1.353172,-1.394165 1.830666,-1.868172c0.872513,-0.866142 1.46315,-1.003876 2.242004,-1.405334c1.043213,-0.537727 1.705597,-1.080727 2.343658,-1.594666c0.796417,-0.641495 1.417831,-1.006973 2.004501,-1.405334c1.025833,-0.696556 1.60524,-1.267883 2.057175,-1.594666c0.934082,-0.675423 1.78833,-1.01902 2.3535,-1.313995c1.211029,-0.632057 1.793213,-1.101891 2.389328,-1.589333c0.603973,-0.493866 1.15892,-1.045128 2.100174,-1.606171c0.876434,-0.522408 1.527435,-0.72213 2.185165,-0.855164c1.383926,-0.279907 2.129105,-0.259781 2.853333,-0.277336c0.691864,-0.016769 1.895004,0.037712 2.875992,-0.046669c0.957397,-0.082352 1.735382,-0.326599 2.560013,-0.538666c1.05545,-0.271423 1.774719,-0.356453 2.450653,-0.450661c1.200363,-0.167305 1.998123,-0.407097 2.549347,-0.549339c1.055237,-0.272301 2.010193,-0.40358 2.735153,-0.42083c1.132874,-0.026955 1.804764,0.000038 2.531845,-0.025337c0.767731,-0.026794 1.960358,-0.132751 2.755661,-0.263161c0.783554,-0.128487 1.883514,-0.390823 2.869339,-0.549339c0.8246,-0.132591 1.583954,-0.161331 2.666656,-0.166664c0.634659,-0.003128 1.666672,0 2.361343,0c1.262329,0 2.033325,0 2.696335,0c1.008987,0 1.80899,0 2.809158,0c0.820663,0 1.966507,0 2.752502,0c0.822006,0 1.880661,0 2.594666,0c0.905334,0 1.874161,0 2.68866,0c0.868515,0 1.764114,-0.009735 2.668503,0.004501c0.61647,0.009705 1.584702,0.054092 2.617004,0.216995c0.738937,0.116608 1.500458,0.294594 2.283005,0.483002c1.197266,0.288254 1.995499,0.495499 2.795502,0.695503c0.799988,0.199997 1.600937,0.396263 2.79982,0.700165c0.796295,0.201851 1.586655,0.398209 2.343002,0.656998c1.102127,0.377098 1.779816,0.713768 2.421173,1.078835c0.633545,0.360619 1.834152,1.166794 2.436005,1.562668c0.598175,0.393448 1.178314,0.805794 2.399994,1.434669c0.587555,0.302452 1.480774,0.624367 1.985672,0.919334c1.101318,0.643387 1.417023,1.316826 2.181,2.080666c0.613525,0.613419 1.284485,0.928902 2.033157,1.709496c0.423691,0.44175 0.97493,1.235565 1.314835,1.774506c0.621246,0.985046 1.073944,1.897758 1.652008,2.682663c0.45787,0.621719 1.042511,1.172791 1.666656,2c0.439072,0.581909 0.880325,1.429237 1.488174,2.199837c0.484589,0.614319 1.06218,1.169937 1.878326,1.778999c0.760788,0.567749 1.3983,0.934319 1.914841,1.791832c0.440048,0.730515 0.686539,1.631149 0.985336,2.529495c0.302567,0.909653 0.505508,1.534164 0.699997,2.185173c0.308777,1.033585 0.601547,2.150261 0.800003,2.925331c0.100784,0.393623 0.400925,1.589104 0.599991,2.390663c0.200943,0.809097 0.404419,1.633644 0.600006,2.484001c0.306931,1.334427 0.400787,1.7985 0.599991,2.739998c0.200821,0.949173 0.293854,1.423347 0.600006,2.808006c0.194763,0.880867 0.397034,1.718353 0.563995,2.519997c0.157974,0.758514 0.322937,1.824707 0.383331,2.498505c0.090393,1.008461 0.116409,1.720047 0.274002,2.890831c0.116409,0.864807 0.279984,1.757118 0.353333,2.206665c0.143936,0.882248 0.318893,2.106491 0.368179,2.836334c0.066986,0.991821 0.056488,1.611664 0.057159,2.814331c0.000504,0.900002 0,1.500008 0,2.700005c0,0.899994 0,1.5 0,2.699997c0,0.899994 0,1.5 0,2.399994c0,1.200012 0.000061,1.800003 0,2.700012c-0.000092,1.199829 0.032532,1.797623 -0.035995,2.664001c-0.08493,1.073929 -0.417328,2.002136 -0.611343,2.68866c-0.270844,0.958374 -0.299576,1.775772 -0.405334,2.594666c-0.13385,1.036438 -0.384857,1.72673 -0.748657,2.636673c-0.399002,0.997986 -0.613937,1.522644 -0.841507,2.306168c-0.344086,1.184708 -0.599304,1.963608 -1.004501,2.709824c-0.4133,0.761124 -0.505814,1.69812 -0.280655,1.139999c0.314468,-0.779495 1.36525,-0.855362 2.042664,-0.922668c1.413849,-0.140472 1.99498,-0.201355 2.619324,-0.278992c0.661026,-0.082199 1.350281,-0.173828 2.058014,-0.285004c1.447372,-0.227371 2.875946,-0.514389 3.565323,-0.674667c0.675964,-0.157166 1.337723,-0.329895 1.992004,-0.503998c1.302094,-0.346481 1.954269,-0.528931 2.618668,-0.690674c1.361938,-0.331558 2.073761,-0.467392 2.800003,-0.598663c0.73645,-0.133118 1.4823,-0.25177 2.231995,-0.364502c0.748962,-0.11261 1.495392,-0.21109 3.666672,-0.520828c0.690567,-0.098511 1.363052,-0.198761 2.018997,-0.304504c0.642761,-0.103622 1.893799,-0.32753 2.505341,-0.452667c0.607147,-0.124237 2.409119,-0.561096 3.003662,-0.725494c0.588135,-0.162628 1.162506,-0.332489 2.261322,-0.656006c0.515289,-0.151718 1.868225,-0.577103 2.91983,-0.746994c0.812256,-0.131226 1.790833,-0.114334 2.576843,-0.114334c0.821991,0 1.880676,0 2.590179,0c0.852661,0 1.857147,0 2.657166,0c1.000336,0 1.841644,0 2.570648,0c1.198669,0 1.890686,0 2.614685,0c0.731995,0 2.129333,0 2.778656,0c0.931488,0 1.835999,0 2.735992,0c0.899994,0 1.5,0 2.698669,0c0.880493,0 1.716003,0 2.714661,0c0.839996,0 1.801331,0 2.686676,0c0.799988,0 1.700165,0.0168 2.600006,0c0.964508,-0.018005 1.397827,-0.704483 1.399994,-1.541672c0.002594,-1.00116 0.028748,-1.722977 -0.057159,-2.510162c-0.112823,-1.033768 -0.37973,-1.722473 -0.744171,-2.632172c-0.40097,-1.000931 -0.588043,-1.560791 -0.955841,-2.420502c-0.387299,-0.905304 -0.888275,-1.798447 -1.263672,-2.374664c-0.372192,-0.571304 -1.179779,-1.598846 -1.574646,-2.068161c-0.569641,-0.677048 -1.266693,-1.60498 -1.647339,-2.405334c-0.256073,-0.538391 -0.5289,-1.374603 -0.958496,-2.363327c-0.300873,-0.692413 -0.674866,-1.373535 -1.281342,-2.366669c-0.489166,-0.801025 -0.905792,-1.262077 -1.347992,-2.348007c-0.282745,-0.694374 -0.516937,-1.631027 -0.87384,-2.373833c-0.481323,-1.00177 -0.865204,-1.567902 -1.128845,-2.595497c-0.201447,-0.785172 -0.165985,-1.599998 -0.166656,-2.599998c-0.000549,-0.800003 0.054504,-1.804382 -0.036011,-2.599998c-0.11496,-1.010513 -0.501129,-1.787903 -0.679993,-2.400002c-0.287628,-0.984238 -0.281738,-1.799995 -0.283997,-2.800003c-0.001801,-0.799995 0,-1.799835 0,-2.579163c0,-0.999336 0,-2.020836 0,-2.820839c0,-0.835999 0,-1.857162 0,-2.6045c0,-0.996834 0,-1.831497 0,-2.762161c0,-0.781502 0,-1.572006 0,-2.690506c0,-0.7575 0,-1.629494 0,-2.389496c0,-1.175003 0,-2 0,-2.599998c0,-1.32 -0.006775,-2.036156 0.010681,-2.768005c0.017273,-0.724236 0.125153,-2.05957 0.34198,-2.875496c0.194611,-0.732338 0.489075,-1.675285 0.599182,-2.467003c0.11853,-0.852295 0.139984,-1.472878 0.617493,-2.64283c0.252136,-0.617805 0.806824,-1.487396 1.264008,-2.400002c0.297363,-0.593567 0.656891,-1.517174 0.862152,-2.157166c0.321991,-1.004051 0.599884,-2.098213 0.825348,-2.842834c0.227142,-0.750168 0.623138,-1.84446 0.96582,-2.514664c0.338013,-0.661057 0.742371,-1.287804 1.200012,-1.884003c0.707947,-0.922287 1.260925,-1.501617 1.813324,-2.080498c0.542419,-0.568413 1.583008,-1.595074 2.042847,-2.068169c0.652954,-0.671772 1.074219,-1.122189 1.85849,-2.138c0.419312,-0.543106 0.824066,-1.133533 1.283997,-1.716c0.719849,-0.911636 1.261749,-1.50407 1.83551,-2.077835c0.57373,-0.573742 1.471832,-1.363407 2.07782,-1.835499c0.870209,-0.677933 1.459442,-1.061378 2.23468,-1.685333c0.72879,-0.586575 1.171051,-1.016331 1.850647,-1.685333c0.742523,-0.730946 1.264069,-1.278095 1.857666,-1.793835c0.606506,-0.526947 1.610229,-1.218346 2.342346,-1.550167c0.727966,-0.329933 1.48996,-0.55175 2.231995,-0.767998c1.397369,-0.407223 2.048981,-0.599682 2.67334,-0.802666c1.212555,-0.394207 2.103455,-0.704319 2.689819,-0.879169c0.831879,-0.248062 1.834778,-0.467636 2.746185,-0.510166c0.940338,-0.04388 1.731812,-0.010666 2.585327,-0.010666c1.189331,0 1.789337,0 2.689331,0c0.899994,0 1.800171,0 2.710663,0c0.625336,0 1.955994,0 2.675995,0c0.76001,0 1.559998,0 2.399994,0c1.334839,0 1.798676,0 2.749359,0c0.97467,0 1.468475,0 2.963989,0c0.997345,0 1.490997,0 2.458344,0c0.927338,0 1.371155,-0.019768 2.972321,0.002666c0.708191,0.009922 1.391846,0.026062 2.052002,0.167999c1.425659,0.306522 2.15387,0.689365 2.538177,0.850166c0.78476,0.328354 1.97583,0.822098 2.777832,1.095169c0.787506,0.268127 1.573212,0.48756 2.315979,0.767998c1.076141,0.406303 1.739716,0.753902 2.674683,1.326668c0.617218,0.378109 1.515228,0.982597 2.106171,1.393833c0.58844,0.409515 1.452911,1.047356 2.182983,1.817001c0.487885,0.514328 0.911072,1.092098 1.520172,1.979832c0.611694,0.891529 1.006531,1.492577 1.380493,2.098667c0.549927,0.891273 0.999664,1.799999 1.272675,2.400002c0.409515,0.899998 0.675842,1.527943 1.291016,2.399998c0.438263,0.621281 0.983032,1.19558 1.508972,1.799999c1.03653,1.191208 1.495483,1.789146 1.906525,2.379166c0.38858,0.557785 1.023346,1.597786 1.416321,2.295502c0.38092,0.676353 0.948029,1.645996 1.278015,2.182503c0.524139,0.852165 0.891174,1.430588 1.463318,2.640167c0.272064,0.57518 0.540375,1.459373 1.205322,2.259834c0.445404,0.536179 1.273254,0.958633 1.921509,1.799995c0.39856,0.517281 0.857178,1.542831 1.257172,2.342834c0.299988,0.599998 0.769043,1.612907 1.200012,2.342834c0.468506,0.79348 1.081818,1.386307 1.782654,2.145164c0.515167,0.557816 1.018402,1.260757 1.274506,2.154503c0.185028,0.645645 0.219788,1.676025 0.3255,2.304169c0.20285,1.205101 0.682037,1.825768 1.115997,2.823997c0.327087,0.752411 0.503723,1.328079 0.67984,2.529167c0.129639,0.88414 0.119232,1.742989 0.12149,2.778664c0.001495,0.685501 0,1.520164 0,2.5215c0,0.800003 0,1.801338 0,2.636002c0,0.930664 -0.026428,1.72287 0.036011,2.574669c0.087463,1.193283 0.245636,1.789902 0.463989,2.689331c0.145752,0.60038 0.402161,1.798073 0.463989,2.699997c0.041077,0.599136 0.036011,1.800003 0.036011,2.700005c0,0.599998 0,1.5 0,2.699997c0,0.599998 0,1.5 0,2.699837c0,0.595665 0,1.464165 0,2.533501c0,0.94133 0,1.619331 0,2.588165c0,0.814499 0,1.682999 0,2.878334c0,0.595665 0,1.464165 0,2.533493c0,0.941345 0.006256,1.619354 -0.000153,2.588013c-0.005341,0.804031 0.022919,1.641953 -0.221344,2.657318c-0.226593,0.941879 -0.606934,1.595016 -0.977173,2.606674c-0.302887,0.827637 -0.50351,1.408981 -0.67984,2.614502c-0.129333,0.884186 -0.110016,1.464188 -0.12149,2.533493c-0.009979,0.930695 0.000732,1.793167 -0.361664,2.766678c-0.23172,0.622513 -0.800903,1.403305 -1.291016,2.004501c-0.51767,0.63501 -1.224426,1.541122 -1.585663,2.34816c-0.35965,0.803482 -0.51532,1.356323 -0.708984,2.590164c-0.133209,0.848755 -0.238953,1.671234 -0.573517,2.457169c-0.434296,1.020279 -0.820435,1.575897 -1.121979,2.342834c-0.392914,0.999268 -0.629333,1.868759 -1.158508,2.457169c-0.661652,0.735703 -1.005524,1.542313 -1.240326,2.220825c-0.353577,1.021683 -1.010956,1.586823 -1.479187,1.958344c-0.698212,0.553986 -1.716461,1.221329 -2.170166,1.773499c-0.694641,0.845352 -0.930573,1.484909 -1.30899,2.414001c-0.313568,0.769882 -0.407318,1.602798 -0.915985,2.578659c-0.396667,0.761002 -1.04129,1.451645 -1.084015,2.354675c-0.042511,0.898987 -0.073303,1.706131 0.036011,2.571991c0.111511,0.883194 0.3479,1.59967 0.76532,2.559998c0.355347,0.817566 0.832062,1.532852 1.598663,2.157333c0.74173,0.604233 1.361267,0.972321 1.821503,1.71051c0.447113,0.717148 1.398987,0.727554 2.278503,0.92099c0.847565,0.186401 1.415833,1.091537 2.135986,1.543167c0.77829,0.488098 1.810333,0.410965 2.478668,1.005341c0.581085,0.516815 0.863068,1.545624 1.585358,2.069c0.766602,0.555481 1.354645,1.00563 2.101318,1.445663c0.700531,0.412842 1.646759,0.701782 2.17334,1.352005c0.590912,0.729675 0.610352,1.720184 1.191986,2.397324c0.584808,0.680862 1.45697,0.796432 1.933502,1.487839c0.443207,0.643051 1.21347,1.461044 1.899841,1.658005c0.968933,0.278046 1.654449,0.770462 2.299988,1.31633c0.75589,0.639175 1.73645,0.536346 2.5,0.789825c0.772186,0.256348 1.520782,0.805878 2.366669,1.081345c0.853424,0.277908 1.699615,0.563828 2.528839,0.886002c0.756348,0.293869 1.480499,0.932724 2.129852,1.357986c0.70108,0.459137 1.340637,1.310883 1.927307,1.879501c0.653778,0.633667 1.477783,0.645828 2.447174,0.931335c0.800812,0.235855 1.605042,0.819489 2.279327,1.257675c0.790497,0.513702 1.816345,0.520828 2.6875,0.520828c0.833344,0 1.718689,0 2.494995,0c0.800018,0 1.76001,0 2.585022,0c0.914978,0 1.920013,-0.003708 2.641327,0.001328c0.769379,0.005371 1.595734,0.018265 2.484009,0.084c1.472748,0.108994 1.995941,0.191116 3.067993,0.350677c0.539825,0.080353 1.598694,0.262436 2.106659,0.365326c1.392609,0.282089 2.191528,0.496094 2.932495,0.698669c0.722382,0.197495 1.854462,0.498932 2.690186,0.702667c0.892273,0.217529 1.362305,0.304535 2.282501,0.611664c1.399872,0.467209 1.835449,0.711731 2.686493,1.186508c0.829041,0.462494 1.196686,0.746292 1.975006,1.145828c1.042816,0.535324 2.059692,0.767014 2.712006,0.85733c1.338379,0.185318 2.059967,0.269012 2.789307,0.432007c0.726837,0.16243 1.430542,0.32402 2.614685,0.763992c0.738953,0.274567 1.767395,0.806686 2.375153,1.100006c0.848206,0.409363 1.815826,0.802673 2.348175,1c0.820465,0.304123 1.883514,0.693298 2.594666,1c0.680786,0.29361 1.613037,0.717316 2.405334,0.995499c0.815887,0.286469 1.881744,0.53154 2.590179,0.656326c0.854034,0.150436 1.861206,0.613831 2.477997,1.069c0.66745,0.492538 1.391266,0.976944 2.193817,1.34317c0.767273,0.350128 1.844208,0.798294 2.364014,1.236008c0.768829,0.64743 1.421326,1.399994 1.921326,1.899994c0.700012,0.699997 1.38913,1.225067 1.889343,1.91066c0.609406,0.835281 0.53479,1.62616 0.777313,2.58934c0.206116,0.818573 0.629395,1.602661 1.034668,2.401337c0.31543,0.621582 0.964264,1.765991 1.282684,2.283997c0.514252,0.836563 0.89505,1.402649 1.349335,2.314667c0.440857,0.885056 0.654053,1.497116 0.965332,2.399994c0.309357,0.897217 0.609497,1.794846 0.76532,2.400009c0.306671,1.190994 0.382843,2.104538 0.436005,2.720825c0.083221,0.964569 0.204437,2.004013 0.361664,2.731842c0.162292,0.751373 0.35791,1.511292 0.804993,2.580658c0.289246,0.691818 0.833099,1.614426 1.123505,2.205002c0.503113,1.023117 0.686859,1.939941 0.707184,2.560333c0.032806,1.000809 0.002655,1.801331 0.002655,2.801331c0,0.800003 0,1.800354 0,2.641663c0,0.729004 0.012695,1.92691 -0.021332,2.609009c-0.034912,0.699646 -0.251282,2.046722 -0.688507,2.834991c-0.274445,0.494812 -0.88031,1.063232 -1.53299,2.123352c-0.392181,0.637024 -0.763641,1.722321 -0.957184,2.358978c-0.206909,0.680603 -0.364227,1.392731 -0.799988,2.698669c-0.277435,0.83139 -0.613464,1.54248 -1,2.5c-0.315552,0.781647 -0.472198,1.356842 -0.885345,2.149353c-0.538544,1.033081 -1.128235,1.669952 -1.519165,2.079498c-0.78125,0.818512 -1.410553,1.401489 -1.995483,2.061646c-0.616211,0.695465 -1.207214,1.502563 -1.62085,2.084503c-0.439209,0.61795 -1.141327,1.628265 -1.66449,2.341003c-0.269531,0.367218 -0.816254,1.112762 -1.419159,1.807495c-0.868408,1.000671 -1.483429,1.554077 -2.09552,2.037842c-0.588715,0.465302 -1.19986,0.869537 -2.100159,1.472168c-0.604248,0.404449 -1.538635,1.031799 -2.18515,1.485168c-1.040405,0.729553 -1.400665,0.994171 -2.129333,1.540009c-0.727356,0.544861 -1.426575,1.078003 -2.342346,1.852997c-0.534912,0.452698 -1.19104,1.11377 -2.042999,1.755005c-0.580383,0.436859 -1.196106,0.763672 -2.200165,1.266663c-0.608185,0.304657 -1.479828,0.713562 -2.483826,1.100006c-0.538574,0.207306 -1.370911,0.480988 -2.394684,0.899994c-0.701416,0.287079 -1.599396,0.714996 -2.342651,0.999817c-0.797974,0.305786 -1.616089,0.591644 -2.657349,0.778839c-0.914612,0.164429 -1.614441,0.164398 -2.605316,0.406677c-0.825012,0.201721 -1.643372,0.488708 -2.629333,0.914673c-0.653015,0.282135 -1.481628,0.858521 -2.186676,1.279144c-0.784485,0.468018 -1.727081,0.476379 -2.700165,0.74234c-0.624207,0.170593 -1.480072,0.592834 -2.483826,0.978516c-0.538696,0.207001 -1.37207,0.47821 -2.394501,0.899994c-0.691742,0.28537 -1.513641,0.713379 -2.321503,1.098663c-0.793823,0.378601 -1.800934,0.674164 -2.600006,0.801331c-1.00119,0.159332 -1.80545,0.424103 -2.399994,0.704498c-1.008362,0.475525 -1.782593,0.866394 -2.578674,1.395325c-0.663025,0.440521 -1.512512,0.777832 -2.195984,0.925507c-0.952942,0.205872 -1.850342,0.740173 -2.52536,1.027344c-0.817352,0.347717 -1.299988,0.375153 -1.299988,1.447327c0,0.554657 0,1.541656 0,2.256348c0,1.076996 0.005463,2.091309 -0.020844,2.743652c-0.026337,0.653168 -0.195374,2.022461 -0.331818,2.757172c-0.141998,0.764679 -0.326355,1.542847 -0.480682,2.742828c-0.102417,0.796234 -0.138489,1.589111 -0.155975,2.364014c-0.016937,0.750519 -0.010681,1.814484 -0.010681,2.799988c0,0.931488 0,1.835999 0,2.735992c0,0.899994 0,1.5 0,2.701324c0,0.609344 0,1.555847 0,2.565338c0,0.717346 0,1.833344 0,2.580688c0,1.085999 0,1.767334 0,2.731812c0,0.919525 0,1.820831 0,2.720856c0,0.899994 0,1.799988 0,2.699982c0,0.899994 0,1.5 0,2.700012c0,0.899994 -0.004211,1.5 0.000153,2.700165c0.002197,0.60434 0.014648,1.537781 0.085175,2.18515c0.152863,1.403076 0.340698,2.129181 0.489349,2.853333c0.141998,0.691864 0.314911,1.894104 0.450653,2.840027c0.118378,0.824951 0.397675,1.62738 0.776001,2.421326c0.385529,0.809082 0.813538,1.66629 0.998657,2.170654c0.435394,1.186279 0.601044,1.890411 0.800018,2.614685c0.201019,0.73172 0.602051,2.126984 0.789337,2.767975c0.258179,0.883667 0.492371,1.924744 0.585327,2.610687c0.113037,0.834167 0.405731,1.831421 0.600006,2.471985c0.355194,1.171143 0.387573,1.720337 0.414642,2.574677c0.037689,1.188782 0.010681,2.084839 0.010681,2.668488c0,0.83551 0,2.068176 0,2.746185c0,0.941315 -0.026428,1.733521 0.036011,2.585327c0.087463,1.193298 0.247986,1.789337 0.463989,2.689331c0.216003,0.899994 0.403229,1.79837 0.463989,2.721344c0.042755,0.64975 0.035339,1.349335 0.036011,2.521332c0.000488,0.862671 0,1.757324 0,2.651978c0,1.272003 0,2.036011 0,2.744019c0,0.675995 0,2.027985 0,2.749329c0,0.769348 0,1.594666 0,2.484009c0,0.961334 0,1.996002 0,2.533325c0,1.094666 0,1.644012 0,2.726654c0,1.034668 0,1.997345 0,2.896027c0,0.850647 0,1.669312 0,2.872498c0,0.812988 0,1.661987 0,2.107483c0,0.947998 0,1.992004 0,3.14267c0,0.602844 0,1.214661 0,2.437347c0,0.596832 0,2.245331 0,2.726654c0,0.874664 0,1.685333 0,2.496002c0,1.355988 0,1.874512 0,2.995483c0,0.584503 0,1.173004 0,2.326019c0,0.546509 0,1.96051 0,2.998505c0,0.803986 0,1.790833 0,2.605316c0,0.8685 0,1.764008 0,2.654999c0,0.837006 0,1.775665 0,2.687683c0,0.942169 0,1.905334 0,2.595978c0,1.068176 -0.181366,1.978821 0.166656,2.825348c0.275909,0.671082 0.822906,1.499817 0.833344,2.399994c0.010406,0.899933 0,1.800018 0,2.700012c0,0.899994 0,1.699982 0,2.600006c0,0.863983 -0.520844,1.299988 -1.410675,1.299988c-0.910828,0 -1.610199,0.006439 -2.589325,0c-0.81073,-0.005341 -1.692017,-0.05426 -2.68399,-0.283997c-0.822357,-0.19043 -1.622742,-0.486115 -2.629333,-0.630676c-0.834747,-0.119873 -1.804016,-0.085327 -2.496521,-0.085327c-0.959503,0 -1.710999,0 -2.507477,0c-1.230011,0 -1.90802,0 -3.10434,0c-0.825012,0 -1.425018,0 -2.744995,0c-0.722687,0 -1.501343,0 -2.35202,0c-0.457336,0 -1.981323,0 -2.545654,0c-1.202667,0 -1.833008,0 -2.477325,0c-0.654358,0 -1.97702,0 -3.291687,0c-0.645996,0 -1.287994,0 -1.931976,0c-1.318024,0 -2.004028,0 -2.716003,0c-0.744019,0 -2.35202,0 -3.225525,0c-0.91449,0 -1.860992,0 -2.830475,0c-0.983521,0 -1.972015,0 -2.956512,0c-0.971497,0 -2.839508,-0.002625 -3.720154,0.000824c-0.844666,0.003296 -1.657837,0.010925 -2.442017,0.052521c-0.761261,0.040375 -1.504181,0.108521 -2.225983,0.232483c-0.715973,0.122955 -2.124786,0.530762 -2.818176,0.820831c-0.708496,0.296387 -1.405914,0.653595 -2.110504,1.02002c-0.711792,0.370209 -1.420624,0.756104 -2.146484,1.109985c-0.723633,0.352814 -2.20285,0.953644 -2.963837,1.155182c-0.754486,0.199799 -1.520599,0.327087 -2.28302,0.385498c-0.75296,0.057678 -1.500671,0.04776 -2.229004,-0.028503c-0.714966,-0.07486 -2.074402,-0.39505 -2.702148,-0.634674c-0.614075,-0.234406 -1.192017,-0.525024 -1.735504,-0.847504c-0.53302,-0.316284 -1.508728,-1.018524 -1.954681,-1.386658c-1.252502,-1.033936 -1.61377,-1.385773 -2.302643,-2.054657c-0.660187,-0.641022 -0.980255,-0.96283 -1.872009,-1.992004c-0.609283,-0.703156 -1.177277,-1.427795 -1.458344,-1.770844c-0.524719,-0.640472 -1.335114,-1.731354 -2.145813,-1.979156c-0.759644,-0.232208 -2.046173,-0.083344 -2.591858,-0.083344c-0.59964,0 -1.928986,0 -2.642639,0c-0.735687,0 -1.485352,0 -2.99469,0c-0.747162,0 -1.497314,0 -2.263489,0c-0.795166,0 -1.632324,0 -2.524506,0c-0.960175,0 -2.001343,0.000122 -4.378662,0c-1.356995,-0.000092 -2.81601,0.000061 -4.359009,-0.004486c-1.608978,-0.00473 -3.266022,-0.013428 -4.953003,-0.031525c-1.699005,-0.018219 -3.392456,-0.032227 -6.687988,-0.130646c-1.574432,-0.047028 -3.113647,-0.115326 -4.642487,-0.199524c-1.544525,-0.085083 -3.128693,-0.191864 -4.777527,-0.316498c-1.739532,-0.13147 -3.593781,-0.283997 -7.746643,-0.650665c-2.339111,-0.206512 -4.830841,-0.434204 -7.438507,-0.676483c-2.687012,-0.249634 -5.415924,-0.508484 -8.149506,-0.775513c-2.702087,-0.263977 -5.336121,-0.518311 -10.245331,-1.048004c-2.214844,-0.238983 -4.273682,-0.478516 -6.202499,-0.709503c-1.824493,-0.218506 -3.568314,-0.436432 -5.257507,-0.646484c-1.659149,-0.206299 -3.312134,-0.419495 -6.706665,-0.810669c-1.782059,-0.205353 -3.62117,-0.401459 -5.501999,-0.600006c-1.908508,-0.201477 -3.831406,-0.399292 -5.753998,-0.600006c-1.908737,-0.19928 -3.790527,-0.389313 -7.41066,-0.799988c-1.715591,-0.194611 -3.360168,-0.395996 -4.934998,-0.591003c-1.505157,-0.186371 -2.939789,-0.369049 -4.305008,-0.536987c-1.2948,-0.159302 -2.518097,-0.320038 -4.759995,-0.538666c-1.015045,-0.098999 -1.966415,-0.167908 -2.857498,-0.223511c-0.835632,-0.052155 -1.621674,-0.08905 -2.362503,-0.124512c-0.700836,-0.033539 -1.367813,-0.052368 -2.613342,-0.151978c-0.591141,-0.047272 -1.164337,-0.114655 -1.723495,-0.186005c-0.548828,-0.070038 -1.088882,-0.148193 -1.624496,-0.222015c-0.533386,-0.073517 -1.066544,-0.155731 -2.152008,-0.258667c-0.554001,-0.052521 -1.117157,-0.0849 -1.685989,-0.109497c-0.57254,-0.02475 -1.147308,-0.0383 -1.722,-0.046478c-0.572647,-0.008148 -1.141342,-0.01001 -2.258667,-0.010681c-0.544678,-0.000336 -1.077332,0 -1.596008,0c-0.50267,0 -0.987335,0 -1.451996,0c-0.442673,0 -0.861328,0 -1.618668,0c-0.335327,0 -0.64267,0 -0.923996,0c-0.257339,0 -0.492676,0 -0.708008,0c-0.197327,0 -0.378662,0.000183 -0.701324,0c-0.145004,-0.000092 -0.28006,0.000458 -0.404999,-0.004486c-0.115082,-0.004547 -0.220734,-0.012299 -0.315002,-0.031525c-0.085831,-0.017487 -0.172913,-0.032959 -0.279999,-0.130646c-0.052597,-0.047974 -0.085709,-0.1185 -0.109512,-0.195007c-0.026016,-0.083618 -0.038589,-0.17981 -0.046494,-0.285004c-0.008636,-0.114838 -0.009995,-0.23999 -0.010666,-0.519989c-0.000366,-0.154999 0,-0.320007 0,-0.494995c0,-0.185028 0,-0.380005 0,-0.585022c0,-0.214996 -0.000153,-0.440002 0,-0.919983c0.000092,-0.256165 0.000122,-0.529388 0.004501,-0.826508c0.004837,-0.328186 0.014526,-0.694397 0.031494,-1.105499c0.019135,-0.463257 0.043823,-0.985718 0.130676,-2.23468c0.051392,-0.739075 0.117599,-1.550629 0.185989,-2.428497c0.072983,-0.936798 0.149612,-1.925507 0.222,-2.959503c0.075027,-1.071655 0.155548,-2.17395 0.258667,-4.445313c0.052383,-1.153717 0.084778,-2.31192 0.109512,-3.468018c0.024567,-1.147919 0.038254,-2.281952 0.046494,-3.395996c0.008041,-1.087982 0.009995,-2.143982 0.010666,-4.135986c0.000305,-0.927338 0,-1.818665 0,-2.688019c0,-0.861328 0,-1.728668 0,-2.615997c0,-0.921326 0,-1.890656 0,-4.029327c0,-1.193176 0,-2.465332 0,-3.805511c0,-1.397156 0,-2.840332 0,-4.318481c0,-1.502167 0,-3.017334 0,-6.042664c0,-1.489502 0,-2.956024 0,-4.396515c0,-1.411499 0,-2.790985 0,-4.135498c0,-1.306488 0,-2.571991 0,-4.967987c0,-1.126343 0,-2.210663 0,-3.261017c0,-1.024323 0,-2.03067 0,-3.027008c0,-0.994324 0,-1.994659 0,-4.045319c0,-1.063507 0,-2.14801 0,-3.244507c0,-1.099487 0,-2.192993 0,-3.271484c0,-1.054504 0,-2.076019 0,-3.984009c0,-0.871674 0,-1.693329 0,-2.475006c0,-0.751648 0,-1.483337 0,-2.204987c0,-0.72168 0.000153,-1.453339 0,-2.986664c-0.000092,-0.818665 0.000107,-1.669342 -0.004501,-2.544006c-0.0047,-0.890656 -0.013229,-1.789398 -0.031494,-2.688019c-0.018097,-0.890717 -0.031357,-1.766296 -0.130676,-3.434662c-0.04657,-0.782379 -0.114639,-1.535248 -0.194992,-2.269501c-0.079712,-0.728424 -0.177002,-1.460083 -0.285004,-2.206482c-0.111893,-0.773285 -0.240143,-1.582642 -0.520004,-3.35733c-0.155075,-0.983337 -0.318314,-2.026947 -0.494995,-3.119995c-0.183243,-1.133636 -0.376038,-2.297394 -0.585007,-3.480011c-0.210983,-1.194031 -0.417984,-2.391266 -0.919998,-4.733337c-0.243668,-1.136841 -0.510941,-2.236908 -0.776993,-3.301514c-0.256744,-1.027405 -0.515411,-2.010803 -0.759003,-2.9505c-0.231049,-0.891296 -0.465652,-1.726807 -0.797333,-3.247986c-0.145798,-0.668701 -0.25119,-1.285767 -0.332993,-1.852509c-0.075058,-0.52005 -0.126892,-1.001495 -0.171005,-1.447479c-0.041122,-0.41568 -0.062714,-0.808533 -0.162674,-1.533356c-0.047699,-0.345856 -0.113968,-0.679382 -0.185989,-1.000488c-0.069443,-0.30957 -0.14621,-0.603973 -0.222,-0.883514c-0.071609,-0.26413 -0.147705,-0.509003 -0.258667,-0.94931c-0.047928,-0.190186 -0.084457,-0.36618 -0.109512,-0.532501c-0.02417,-0.1604 -0.038498,-0.321564 -0.046494,-0.487518c-0.008469,-0.17572 -0.009995,-0.366669 -0.010666,-0.813324c-0.000397,-0.264679 0,-0.557343 0,-0.876007c0,-0.342651 0,-0.707336 0,-1.09198c0,-0.402679 0,-0.82135 0,-1.698669c0,-0.456177 0,-0.929352 0,-1.426514c0,-0.528168 0,-1.09433 0,-1.705505c0,-0.663147 0.000153,-1.385315 0,-3.034668c-0.000092,-0.938477 0.000015,-1.947998 -0.004501,-3.019501c-0.004745,-1.124481 -0.01355,-2.29303 -0.031494,-3.49649c-0.018326,-1.229523 -0.034927,-2.476532 -0.130676,-4.984009c-0.047516,-1.244141 -0.114365,-2.470825 -0.185989,-3.673492c-0.069794,-1.172028 -0.146515,-2.305725 -0.222,-3.394501c-0.071884,-1.036896 -0.147705,-2.014221 -0.258667,-3.76532c-0.048279,-0.761841 -0.083252,-1.456055 -0.1185,-2.094025c-0.032822,-0.594025 -0.064682,-1.156311 -0.109512,-1.697998c-0.044235,-0.534363 -0.089828,-1.074768 -0.271988,-2.207977c-0.099747,-0.620514 -0.232727,-1.271698 -0.381012,-1.948517c-0.152908,-0.697906 -0.323334,-1.406677 -0.506989,-2.119507c-0.18367,-0.71286 -0.368927,-1.418365 -0.778671,-2.76532c-0.19397,-0.63765 -0.397751,-1.246979 -0.595505,-1.837494c-0.192932,-0.576141 -0.386383,-1.140793 -0.568497,-1.702499c-0.181549,-0.559967 -0.369812,-1.121613 -0.669327,-2.293335c-0.155136,-0.606888 -0.285431,-1.233856 -0.4095,-1.872009c-0.125305,-0.644531 -0.237976,-1.294388 -0.346512,-1.944c-0.107773,-0.64505 -0.205597,-1.283279 -0.41066,-2.517334c-0.098053,-0.590134 -0.198135,-1.158752 -0.295502,-1.70549c-0.093307,-0.523926 -0.184357,-1.023544 -0.268494,-1.498505c-0.079483,-0.44873 -0.158798,-0.869446 -0.269333,-1.629333c-0.048752,-0.335159 -0.084122,-0.645081 -0.109512,-0.932999c-0.023758,-0.269455 -0.038254,-0.525253 -0.046494,-0.770996c-0.008041,-0.239609 -0.009995,-0.477341 -0.010666,-0.962677c-0.000351,-0.254822 0,-0.518661 0,-0.790497c0,-0.278824 0,-0.56366 0,-0.8535c0,-0.293839 0,-0.590668 0,-1.189331c0,-0.299667 0,-0.597336 0,-0.891006c0,-0.287659 0,-0.567322 0,-0.83699c0,-0.257675 0,-0.501343 0,-0.938675c0,-0.190491 0,-0.363998 0,-0.523499c0,-0.148499 0,-0.289001 0,-0.4245c0,-0.133499 0,-0.26799 0,-0.552002c0,-0.154831 0,-0.318665 0,-0.490494c0,-0.178833 0,-0.363663 0,-0.553497c0,-0.193832 -0.000168,-0.390671 0,-0.789337c0.000092,-0.199661 -0.006393,-0.397614 0.004501,-0.591003c0.047348,-0.840881 0.782425,-1.463196 1.048172,-2.227829c0.321259,-0.924332 0.451157,-1.708191 0.748657,-2.498505c0.378555,-1.005661 0.686127,-1.682709 1.084,-2.281326c0.556351,-0.837051 1.166718,-1.455444 1.57634,-1.972839c0.723633,-0.914047 1.227402,-1.676392 1.752991,-2.504501c0.267792,-0.421936 0.784195,-1.260956 1.452011,-2.423996c0.367447,-0.639938 0.765152,-1.432602 1.130661,-2.010666c0.562988,-0.890366 1.233917,-1.638504 1.591995,-2.314667c0.3573,-0.674698 0.764832,-1.600433 1.258011,-2.227341c0.511322,-0.649979 0.352661,-1.661987 0.352661,-2.557999c0,-0.889328 0,-1.778656 0,-2.674667c0,-0.914658 0,-1.814667 0,-2.714661c0,-0.833328 0,-1.704498 0,-2.563995c0,-0.872009 0,-1.835999 0,-2.740509c0,-0.862167 0,-1.695496 0,-2.673828c0,-0.854996 -0.361176,-1.822586 0.035995,-2.585663c0.395233,-0.759354 0.945374,-1.237534 0.964005,-2.136002c0.018661,-0.900528 0.425339,-1.699997 0.914673,-2.5l0.085327,-0.899673" id="svg_2" stroke-width="5" stroke="#000000" fill="none"/>
</svg>
