<?xml version="1.0" encoding="utf-8"?>
<!-- Generator: Adobe Illustrator 18.0.0, SVG Export Plug-In . SVG Version: 6.00 Build 0)  -->
<!DOCTYPE svg PUBLIC "-//W3C//DTD SVG 1.1//EN" "http://www.w3.org/Graphics/SVG/1.1/DTD/svg11.dtd">
<svg version="1.1" id="Layer_2" xmlns="http://www.w3.org/2000/svg" xmlns:xlink="http://www.w3.org/1999/xlink" x="0px" y="0px"
	 viewBox="0 0 380.2 496.7" enable-background="new 0 0 380.2 496.7" xml:space="preserve">
<path fill-rule="evenodd" clip-rule="evenodd" fill="none" stroke="#000000" stroke-width="3" stroke-miterlimit="10" d="M56,193.2
	c0,0-21.2,26.9-17.6,33.4c0,0,1.5-1.1,4-2.6c7.5-4.4,24-12.4,35-4.8c0,0,26.1,5.1-21,96.8c0,0-17.7,64.5,34.6,65.1
	c0,0,30,137.3,164.5,66.6c0,0,53.5-19.3,73.3-5c0,0-1-249.7-173.3-281.7c0,0,156.6,11.5,167.2-49.6c0,0,3.9-11.1-4.2-19.5l5-7
	c0,0-80.1,2.7-71.7-22.4l17.1-43.2c0,0-9.5-7.7-64.9,55.3c0,0-57.4,13-26.1-60.7c0,0-20.4-1.6-40.5,66.4c0,0-25,50.3-22.2-2.2
	c0,0,5.4-38.8-13.2-13.3c0,0-10.7,64.1-15.6,61.6c0,0-7.4-3.3-16.2-18.4c0,0-3.3,6.7-2.8,22.7c0,0,13.2,6-4.7,8.8c0,0-8-2.4-4.8,6.8
	c0,0,6-0.2-8.9,13.5C48.8,160,44.8,171.6,56,193.2z"/>
</svg>
