<?xml version="1.0"?>
<svg width="580" height="400" xmlns="http://www.w3.org/2000/svg">

  <title>Layer 1</title>
  <path d="m75.5,252.5c0,-5 0.88343,-11.405533 5,-21c3.178917,-7.409088 8.709229,-13.639923 12,-21c2.58149,-5.773727 4.953995,-12.013306 7,-19c2.934151,-10.019516 6.051125,-23.277954 10,-35c4.862633,-14.434494 9.385406,-27.177536 14,-42c4.418968,-14.194107 9.77858,-26.076088 14,-38c2.85141,-8.054153 4.640701,-15.060814 6,-22c0.792603,-4.046207 1,-7 1,-10c0,-3 -0.418854,-6.418861 -2,-8c-1.581146,-1.581139 -3.693436,-1.458805 -5,-2c-1.847763,-0.765366 -6,0 -9,0c-4,0 -8,0 -12,0c-4,0 -8.078438,-0.210152 -11,1c-2.065857,0.855705 -5.190277,2.881523 -7,6c-1.122345,1.933998 -2.789848,6.078438 -4,9c-0.855705,2.065857 -1,5 -1,8c0,2 0,5 0,8c0,4 -0.152771,7.041321 1,11c0.884132,3.036163 2.731445,6.076889 4,10c1.656853,5.123947 4.210052,8.850761 7,13c3.253609,4.838806 7.729622,10.228851 12,15c3.772675,4.21508 6.937889,8.047348 10,12c3.921417,5.061874 6.847961,8.079697 9,12c2.805908,5.11145 7.518707,8.541229 11,13c3.58844,4.595993 4.79393,10.087433 7,15c2.748062,6.119492 5.288589,11.868286 7,16c2.420303,5.843124 3.847229,9.041321 5,13c0.88414,3.036163 2,11 2,16c0,5 0,9 0,12c0,3 1.530731,5.304489 0,9c-1.082397,2.613129 -5.506241,4.66539 -8,6c-4.495682,2.406006 -8.838089,2.465515 -14,4c-4.887634,1.452942 -11,1 -17,1c-6,0 -9.868286,-0.288589 -14,-2c-2.921562,-1.210144 -7.613838,-2.296997 -10,-5c-1.479836,-1.676331 -4.112137,-3.918304 -7,-8c-2.082466,-2.943359 -3.714119,-5.21167 -6,-8c-1.79319,-2.187347 -3.714119,-5.21167 -6,-8c-1.79319,-2.187347 -4.288589,-6.868286 -6,-11c-1.210152,-2.92157 -2.331985,-7.229355 -4,-11c-1.458641,-3.297333 -3.486259,-7.823746 -4,-10c-0.689262,-2.919754 0.366547,-7.022476 0,-10c-0.503777,-4.092209 -1,-6 -1,-9c0,-1 -0.229752,-0.973251 0,0c0.513741,2.176254 1.610649,4.159271 3,7c1.584106,3.238922 4.664467,6.458069 7,10c2.964485,4.495758 3.918304,7.112137 8,10c2.943352,2.082474 6.078438,3.789856 9,5c4.131714,1.711411 6.963837,3.11586 10,4c3.958679,1.152771 7,1 11,1c3,0 10,0 15,0c4,0 8.318558,-0.221298 14,-3c3.238922,-1.584106 6.809006,-4.321442 10,-6c4.765991,-2.50705 8.21167,-3.714127 11,-6c3.281006,-2.689789 5.464462,-6.464462 9,-10c3.535538,-3.535538 5.112137,-5.918304 8,-10c2.082474,-2.943359 3.206802,-4.812653 5,-7c2.285873,-2.78833 2.633453,-7.022476 3,-10c0.503769,-4.092209 2,-7 2,-11c0,-3 0,-5 0,-7c0,-2 0,0 0,3c0,7 0,16 0,22c0,17 0,25 0,37c0,11 0.498734,18.946716 1,26c0.354446,4.987427 0.486252,8.823746 1,11c0.689255,2.919754 2,5 2,7c0,4 -0.306564,4.458801 1,5c0.923874,0.38269 3,0 5,0c5,0 6.761078,-1.415894 10,-3c2.840729,-1.389359 6.132004,-1.75531 10,-4c3.118484,-1.809723 5.30806,-4.909653 9,-7c3.587921,-2.031448 4.877655,-3.06601 6,-5c1.809723,-3.118484 3.160416,-5.963287 4,-10c1.238632,-5.955322 1,-11 1,-17c0,-7 0,-13 0,-20c0,-8 0,-14 0,-20c0,-9 -1,-15 -1,-20c0,-5 0,-8 0,-10c0,-2 0,-3 0,-2c0,3 0,9 0,16c0,8 0,18 0,27c0,7 0,15 0,21c0,5 0.486252,8.823746 1,11c0.689255,2.919754 1.486252,5.823746 2,8c0.229752,0.973251 0.693436,2.458801 2,3c0.923874,0.38269 2,0 3,1c1,1 3,1 5,1c1,0 4,0 6,0c2,0 5,0 7,0c2,0 3.823761,-0.486252 6,-1c1.946503,-0.459503 4.309998,-1.337494 7,-3c3.609009,-2.230484 6,-6 9,-9c2,-2 5,-5 7,-8c2,-3 3.112152,-4.918304 6,-9c2.082458,-2.943359 3.288574,-4.868286 5,-9c1.210144,-2.92157 2,-6 3,-9c1,-3 2,-7 2,-10c0,-4 0,-7 0,-11c0,-4 0,-8 0,-12c0,-3 -1,-6 -2,-8c-1,-2 -2.693451,-3.458801 -4,-4c-0.923889,-0.382683 -3,-1 -6,-1c-3,0 -5,0 -9,0c-2,0 -4.418854,-0.581139 -6,1c-1.581146,1.581139 -2.493469,3.878555 -3,7c-0.48056,2.961266 -0.51944,8.038742 -1,11c-0.506531,3.121445 -1,6 -1,11c0,5 -0.267395,11.063629 2,20c1.790436,7.056503 3.375397,15.118088 5,22c1.453094,6.155365 3.95517,11.549149 5,15c0.869354,2.871277 2.486267,4.823746 3,7c0.459503,1.946503 0.693451,3.458801 2,4c0.923889,0.38269 2,1 5,1c1,0 3,0 7,0c3,0 7.041321,0.152771 11,-1c3.036163,-0.88414 7.412079,-0.968552 11,-3c2.461304,-1.39357 4,-3 5,-4c1,-1 1.692535,-2.186005 3,-4c0.826904,-1.147263 2.346191,-1.70546 4,-4c1.307465,-1.813995 4.206818,-4.812653 6,-7c2.285889,-2.78833 4.144287,-5.934143 5,-8c1.210144,-2.92157 2.51944,-5.038742 3,-8c0.506531,-3.121445 1,-6 2,-8l2,-1l0,-2l0,0" id="svg_1" stroke-width="8" stroke="#000" fill="none"/>
 </g>
</svg>
